<svg width="1200" height="630" viewBox="0 0 1200 630" fill="none" xmlns="http://www.w3.org/2000/svg">
  <rect width="1200" height="630" fill="#0B1120"/>
  <g opacity="0.55">
    <path d="M0 118H1200M0 236H1200M0 354H1200M0 472H1200M120 0V630M240 0V630M360 0V630M480 0V630M600 0V630M720 0V630M840 0V630M960 0V630M1080 0V630" stroke="#94A3B8" stroke-opacity="0.08"/>
  </g>
  <circle cx="952" cy="122" r="220" fill="#0EA5E9" fill-opacity="0.18"/>
  <circle cx="105" cy="520" r="180" fill="#8B5CF6" fill-opacity="0.18"/>
  <rect x="676" y="156" width="318" height="286" rx="28" fill="#0F172A" fill-opacity="0.74" stroke="#38BDF8" stroke-opacity="0.3"/>
  <rect x="724" y="212" width="91" height="68" rx="16" fill="#0EA5E9" fill-opacity="0.18" stroke="#67E8F9" stroke-opacity="0.45"/>
  <rect x="854" y="212" width="91" height="68" rx="16" fill="#8B5CF6" fill-opacity="0.18" stroke="#A78BFA" stroke-opacity="0.45"/>
  <rect x="789" y="324" width="91" height="68" rx="16" fill="#14B8A6" fill-opacity="0.15" stroke="#2DD4BF" stroke-opacity="0.45"/>
  <path d="M815 246H854M900 280V324M835 324V280" stroke="#67E8F9" stroke-width="3" stroke-linecap="round"/>
  <text x="120" y="246" fill="#E5F4FF" font-size="66" font-family="Inter, Arial" font-weight="800">Jathin Y</text>
  <text x="122" y="318" fill="#67E8F9" font-size="34" font-family="Inter, Arial" font-weight="700">Azure Backend &amp; Integration Engineer</text>
  <text x="124" y="379" fill="#CBD5E1" font-size="26" font-family="Inter, Arial">Enterprise cloud systems. Distributed workflows. Reliable integrations.</text>
</svg>
